<svg width="18" height="22" viewBox="0 0 18 22" fill="none" xmlns="http://www.w3.org/2000/svg">
<path d="M5.25 6.5V5.10822C5.25 3.97324 6.09499 3.01015 7.22608 2.91627C7.59937 2.88529 7.97386 2.85858 8.34952 2.83619M12.75 17H15C16.2426 17 17.25 15.9926 17.25 14.75V5.10822C17.25 3.97324 16.405 3.01015 15.2739 2.91627C14.9006 2.88529 14.5261 2.85858 14.1505 2.83619M12.75 17.75V15.875C12.75 14.011 11.239 12.5 9.375 12.5H7.875C7.25368 12.5 6.75 11.9963 6.75 11.375V9.875C6.75 8.01104 5.23896 6.5 3.375 6.5H2.25M14.1505 2.83619C13.8672 1.91757 13.0116 1.25 12 1.25H10.5C9.48842 1.25 8.63276 1.91757 8.34952 2.83619M14.1505 2.83619C14.2152 3.04602 14.25 3.26894 14.25 3.5V4.25H8.25V3.5C8.25 3.26894 8.28483 3.04602 8.34952 2.83619M3.75 6.5H1.875C1.25368 6.5 0.75 7.00368 0.75 7.625V19.625C0.75 20.2463 1.25368 20.75 1.875 20.75H11.625C12.2463 20.75 12.75 20.2463 12.75 19.625V15.5C12.75 10.5294 8.72056 6.5 3.75 6.5Z" stroke="#333333" stroke-width="1.5" stroke-linecap="round" stroke-linejoin="round"/>
</svg>
