<svg width="48" height="48" viewBox="0 0 48 48" fill="none" xmlns="http://www.w3.org/2000/svg">
<circle cx="24" cy="24" r="24" fill="#F9F9F9"/>
<path d="M20.7517 24.0002L14.4635 17.7121C13.5665 16.8151 13.5665 15.3608 14.4635 14.4638C15.3606 13.5668 16.8148 13.5668 17.7118 14.4638L24 20.752L30.2882 14.4638C31.1852 13.5668 32.6395 13.5668 33.5365 14.4638C34.4335 15.3608 34.4335 16.8151 33.5365 17.7121L27.2483 24.0002L33.5365 30.2884C34.4335 31.1854 34.4335 32.6397 33.5365 33.5367C33.088 33.9852 32.5002 34.2095 31.9124 34.2095C31.3245 34.2095 30.7367 33.9852 30.2882 33.5367L24 27.2485L17.7118 33.5367C17.2633 33.9852 16.6755 34.2095 16.0877 34.2095C15.4999 34.2095 14.9121 33.9852 14.4636 33.5367C13.5666 32.6397 13.5666 31.1854 14.4636 30.2884L20.7517 24.0002Z" fill="#CCCCCC"/>
</svg>
