<svg width="24" height="25" viewBox="0 0 24 25" fill="none" xmlns="http://www.w3.org/2000/svg">
<rect y="0.5" width="24" height="24" rx="12" fill="#FFF0FF"/>
<path d="M17.4766 8.66406L17.0634 15.3475C16.9579 17.055 16.9051 17.9088 16.4771 18.5226C16.2655 18.8261 15.993 19.0823 15.677 19.2747C15.038 19.6641 14.1826 19.6641 12.4717 19.6641C10.7586 19.6641 9.9021 19.6641 9.2626 19.274C8.94643 19.0812 8.67389 18.8246 8.46235 18.5206C8.03448 17.9058 7.98286 17.0508 7.87963 15.3408L7.47656 8.66406" stroke="#660066" stroke-width="1.5" stroke-linecap="round"/>
<path d="M6.47656 8.66536H18.4766M15.1804 8.66536L14.7253 7.72652C14.4229 7.10287 14.2718 6.79105 14.011 6.59657C13.9532 6.55343 13.892 6.51506 13.8279 6.48183C13.5392 6.33203 13.1926 6.33203 12.4996 6.33203C11.7891 6.33203 11.4339 6.33203 11.1404 6.48811C11.0753 6.5227 11.0132 6.56263 10.9548 6.60748C10.691 6.80983 10.5436 7.13307 10.249 7.77954L9.84518 8.66536" stroke="#660066" stroke-width="1.5" stroke-linecap="round"/>
<path d="M10.8125 16L10.8125 12" stroke="#660066" stroke-width="1.5" stroke-linecap="round"/>
<path d="M14.1406 16L14.1406 12" stroke="#660066" stroke-width="1.5" stroke-linecap="round"/>
</svg>
