<svg width="154" height="153" viewBox="0 0 154 153" fill="none" xmlns="http://www.w3.org/2000/svg">
<rect x="0.5" width="153" height="153" rx="76.5" fill="#FFF0FF"/>
<path d="M72 62H82C82 60.6739 81.4732 59.4021 80.5355 58.4645C79.5979 57.5268 78.3261 57 77 57C75.6739 57 74.4021 57.5268 73.4645 58.4645C72.5268 59.4021 72 60.6739 72 62ZM67 62C67 59.3478 68.0536 56.8043 69.9289 54.9289C71.8043 53.0536 74.3478 52 77 52C79.6522 52 82.1957 53.0536 84.0711 54.9289C85.9464 56.8043 87 59.3478 87 62H99.5C100.163 62 100.799 62.2634 101.268 62.7322C101.737 63.2011 102 63.837 102 64.5C102 65.163 101.737 65.7989 101.268 66.2678C100.799 66.7366 100.163 67 99.5 67H97.295L95.08 92.85C94.8671 95.3462 93.7249 97.6715 91.8796 99.3659C90.0343 101.06 87.6202 102 85.115 102H68.885C66.3798 102 63.9657 101.06 62.1204 99.3659C60.2751 97.6715 59.1329 95.3462 58.92 92.85L56.705 67H54.5C53.837 67 53.2011 66.7366 52.7322 66.2678C52.2634 65.7989 52 65.163 52 64.5C52 63.837 52.2634 63.2011 52.7322 62.7322C53.2011 62.2634 53.837 62 54.5 62H67ZM84.5 77C84.5 76.337 84.2366 75.7011 83.7678 75.2322C83.2989 74.7634 82.663 74.5 82 74.5C81.337 74.5 80.7011 74.7634 80.2322 75.2322C79.7634 75.7011 79.5 76.337 79.5 77V87C79.5 87.663 79.7634 88.2989 80.2322 88.7678C80.7011 89.2366 81.337 89.5 82 89.5C82.663 89.5 83.2989 89.2366 83.7678 88.7678C84.2366 88.2989 84.5 87.663 84.5 87V77ZM72 74.5C72.663 74.5 73.2989 74.7634 73.7678 75.2322C74.2366 75.7011 74.5 76.337 74.5 77V87C74.5 87.663 74.2366 88.2989 73.7678 88.7678C73.2989 89.2366 72.663 89.5 72 89.5C71.337 89.5 70.7011 89.2366 70.2322 88.7678C69.7634 88.2989 69.5 87.663 69.5 87V77C69.5 76.337 69.7634 75.7011 70.2322 75.2322C70.7011 74.7634 71.337 74.5 72 74.5ZM63.9 92.425C64.0065 93.6735 64.5779 94.8365 65.5011 95.6838C66.4243 96.531 67.632 97.0008 68.885 97H85.115C86.3672 96.9995 87.5736 96.5292 88.4957 95.6821C89.4179 94.8349 89.9886 93.6726 90.095 92.425L92.275 67H61.725L63.9 92.425Z" fill="#660066"/>
</svg>
