<svg width="17" height="22" viewBox="0 0 17 22" fill="none" xmlns="http://www.w3.org/2000/svg">
<path d="M16 13.25V10.625C16 8.76104 14.489 7.25 12.625 7.25H11.125C10.5037 7.25 10 6.74632 10 6.125V4.625C10 2.76104 8.48896 1.25 6.625 1.25H4.75M4.75 14H12.25M4.75 17H8.5M7 1.25H2.125C1.50368 1.25 1 1.75368 1 2.375V19.625C1 20.2463 1.50368 20.75 2.125 20.75H14.875C15.4963 20.75 16 20.2463 16 19.625V10.25C16 5.27944 11.9706 1.25 7 1.25Z" stroke="#0F172A" stroke-width="1.5" stroke-linecap="round" stroke-linejoin="round"/>
</svg>
