<svg width="154" height="153" viewBox="0 0 154 153" fill="none" xmlns="http://www.w3.org/2000/svg">
<rect x="0.5" width="153" height="153" rx="76.5" fill="#FFF0FF"/>
<path d="M76.494 43.6667C66.4681 43.6667 59.9673 50.3967 52.279 52.8498C49.153 53.8472 47.5899 54.3459 46.9573 55.0489C46.3248 55.7519 46.1395 56.7792 45.7691 58.8339C41.8048 80.8201 50.4697 101.147 71.1343 109.058C73.3546 109.908 74.4648 110.333 76.5049 110.333C78.5451 110.333 79.6552 109.908 81.8754 109.058C102.539 101.147 111.195 80.82 107.23 58.8338C106.859 56.7789 106.674 55.7514 106.041 55.0484C105.409 54.3453 103.846 53.8469 100.72 52.85C93.0285 50.3972 86.5203 43.6667 76.494 43.6667Z" stroke="#660066" stroke-width="3" stroke-linecap="round" stroke-linejoin="round"/>
<path d="M68.4343 89.8577L67.8259 91.2288H67.8259L68.4343 89.8577ZM65.2774 86.4753L63.8783 87.0162H63.8783L65.2774 86.4753ZM87.7226 86.4753L89.1217 87.0162V87.0162L87.7226 86.4753ZM84.5656 89.8577L85.1741 91.2288H85.1741L84.5656 89.8577ZM84.5656 72.0592L85.1741 70.6882L84.5656 72.0592ZM87.7226 75.4417L89.1217 74.9008V74.9008L87.7226 75.4417ZM68.4343 72.0592L67.8259 70.6882H67.8259L68.4343 72.0592ZM65.2774 75.4417L63.8783 74.9008H63.8783L65.2774 75.4417ZM69.1667 71.5835C69.1667 72.4119 69.8382 73.0835 70.6667 73.0835C71.4951 73.0835 72.1667 72.4119 72.1667 71.5835H69.1667ZM80.8333 71.5835C80.8333 72.4119 81.5049 73.0835 82.3333 73.0835C83.1618 73.0835 83.8333 72.4119 83.8333 71.5835H80.8333ZM73.5833 73.0835H79.4167V70.0835H73.5833V73.0835ZM79.4167 88.8335H73.5833V91.8335H79.4167V88.8335ZM73.5833 88.8335C72.2024 88.8335 71.2471 88.8326 70.5009 88.778C69.7705 88.7246 69.3558 88.6256 69.0428 88.4867L67.8259 91.2288C68.5849 91.5657 69.3857 91.7045 70.2822 91.77C71.1631 91.8344 72.2463 91.8335 73.5833 91.8335V88.8335ZM63.3333 80.9585C63.3333 82.3954 63.3326 83.5432 63.3919 84.4735C63.4518 85.4155 63.5777 86.2386 63.8783 87.0162L66.6765 85.9344C66.533 85.5634 66.4368 85.0841 66.3858 84.2829C66.334 83.47 66.3333 82.4337 66.3333 80.9585H63.3333ZM69.0428 88.4867C67.9962 88.0222 67.1332 87.1159 66.6765 85.9344L63.8783 87.0162C64.6056 88.8975 66.0138 90.4246 67.8259 91.2288L69.0428 88.4867ZM86.6667 80.9585C86.6667 82.4337 86.666 83.47 86.6142 84.2829C86.5632 85.0841 86.467 85.5634 86.3235 85.9344L89.1217 87.0162C89.4223 86.2386 89.5481 85.4155 89.6081 84.4735C89.6674 83.5432 89.6667 82.3954 89.6667 80.9585H86.6667ZM79.4167 91.8335C80.7537 91.8335 81.8369 91.8344 82.7178 91.77C83.6143 91.7045 84.4151 91.5657 85.1741 91.2288L83.9572 88.4867C83.6442 88.6256 83.2295 88.7246 82.499 88.778C81.7529 88.8326 80.7976 88.8335 79.4167 88.8335V91.8335ZM86.3235 85.9344C85.8668 87.1159 85.0038 88.0222 83.9572 88.4867L85.1741 91.2288C86.9862 90.4246 88.3944 88.8975 89.1217 87.0162L86.3235 85.9344ZM79.4167 73.0835C80.7976 73.0835 81.7529 73.0844 82.499 73.139C83.2295 73.1924 83.6442 73.2914 83.9572 73.4303L85.1741 70.6882C84.4151 70.3513 83.6143 70.2125 82.7178 70.147C81.8369 70.0826 80.7537 70.0835 79.4167 70.0835V73.0835ZM89.6667 80.9585C89.6667 79.5216 89.6674 78.3738 89.6081 77.4434C89.5481 76.5015 89.4223 75.6784 89.1217 74.9008L86.3235 75.9826C86.467 76.3536 86.5632 76.8328 86.6142 77.6341C86.666 78.447 86.6667 79.4833 86.6667 80.9585H89.6667ZM83.9572 73.4303C85.0038 73.8948 85.8668 74.8011 86.3235 75.9826L89.1217 74.9008C88.3944 73.0195 86.9862 71.4924 85.1741 70.6882L83.9572 73.4303ZM73.5833 70.0835C72.2463 70.0835 71.1631 70.0826 70.2822 70.147C69.3857 70.2125 68.5849 70.3513 67.8259 70.6882L69.0428 73.4303C69.3558 73.2914 69.7705 73.1924 70.5009 73.139C71.2471 73.0844 72.2024 73.0835 73.5833 73.0835V70.0835ZM66.3333 80.9585C66.3333 79.4833 66.334 78.447 66.3858 77.6341C66.4368 76.8328 66.533 76.3536 66.6765 75.9826L63.8783 74.9008C63.5777 75.6784 63.4518 76.5015 63.3919 77.4434C63.3326 78.3738 63.3333 79.5216 63.3333 80.9585H66.3333ZM67.8259 70.6882C66.0138 71.4924 64.6056 73.0195 63.8783 74.9008L66.6765 75.9826C67.1332 74.8011 67.9962 73.8948 69.0428 73.4303L67.8259 70.6882ZM72.1667 71.5835V65.9585H69.1667V71.5835H72.1667ZM80.8333 65.9585V71.5835H83.8333V65.9585H80.8333ZM76.5 61.8335C78.9451 61.8335 80.8333 63.7313 80.8333 65.9585H83.8333C83.8333 61.9725 80.4982 58.8335 76.5 58.8335V61.8335ZM72.1667 65.9585C72.1667 63.7313 74.0549 61.8335 76.5 61.8335V58.8335C72.5018 58.8335 69.1667 61.9725 69.1667 65.9585H72.1667Z" fill="#660066"/>
</svg>
