<svg width="154" height="154" viewBox="0 0 154 154" fill="none" xmlns="http://www.w3.org/2000/svg">
<rect x="0.5" y="0.5" width="153" height="153" rx="76.5" fill="#FFF0FF"/>
<path d="M53.6677 60.3335L49.6051 63.0419C46.6927 64.9835 45.2365 65.9543 44.4473 67.4349C43.6582 68.9154 43.664 70.6554 43.6757 74.1354C43.6898 78.3253 43.7287 82.5943 43.8366 86.9139C44.0924 97.1626 44.2203 102.287 47.9883 106.055C51.7563 109.823 56.9498 109.953 67.3369 110.212C73.7988 110.374 80.2034 110.374 86.6654 110.212C97.0525 109.953 102.246 109.823 106.014 106.055C109.782 102.287 109.91 97.1625 110.166 86.9139C110.273 82.5943 110.312 78.3252 110.326 74.1354C110.338 70.6554 110.344 68.9154 109.555 67.4349C108.766 65.9543 107.309 64.9835 104.397 63.0419L100.334 60.3335" stroke="#660066" stroke-width="3" stroke-linejoin="round"/>
<path d="M43.6666 70.3335L66.71 84.1595C71.7234 87.1676 74.2301 88.6716 77 88.6716C79.7698 88.6716 82.2765 87.1676 87.2899 84.1595L110.333 70.3335" stroke="#660066" stroke-width="3" stroke-linejoin="round"/>
<path d="M53.6666 77.0001V57.0001C53.6666 50.7147 53.6666 47.572 55.6192 45.6194C57.5719 43.6667 60.7146 43.6667 67 43.6667H87C93.2854 43.6667 96.428 43.6667 98.3807 45.6194C100.333 47.572 100.333 50.7147 100.333 57.0001V77.0001" stroke="#660066" stroke-width="3"/>
<path d="M70.3333 70.3335H83.6666M70.3333 57.0002H83.6666" stroke="#660066" stroke-width="3" stroke-linecap="round" stroke-linejoin="round"/>
</svg>
