<svg width="60" height="60" viewBox="0 0 60 60" fill="none" xmlns="http://www.w3.org/2000/svg">
<rect width="60" height="60" rx="30" fill="#FFF0FF"/>
<path d="M20.368 37V24.4H22.438V37H20.368ZM21.79 37V35.11H28.846V37H21.79ZM21.79 31.474V29.656H28.234V31.474H21.79ZM21.79 26.29V24.4H28.756V26.29H21.79ZM32.4072 32.248V30.448H35.5572C35.9892 30.448 36.3672 30.364 36.6912 30.196C37.0272 30.016 37.2912 29.77 37.4832 29.458C37.6752 29.134 37.7712 28.756 37.7712 28.324C37.7712 27.892 37.6752 27.52 37.4832 27.208C37.2912 26.884 37.0272 26.638 36.6912 26.47C36.3672 26.29 35.9892 26.2 35.5572 26.2H32.4072V24.4H35.6652C36.4572 24.4 37.1652 24.562 37.7892 24.886C38.4252 25.21 38.9232 25.666 39.2832 26.254C39.6552 26.842 39.8412 27.532 39.8412 28.324C39.8412 29.116 39.6552 29.806 39.2832 30.394C38.9232 30.982 38.4252 31.438 37.7892 31.762C37.1652 32.086 36.4572 32.248 35.6652 32.248H32.4072ZM30.9852 37V24.4H33.0552V37H30.9852Z" fill="#660066"/>
</svg>
