<svg width="154" height="153" viewBox="0 0 154 153" fill="none" xmlns="http://www.w3.org/2000/svg">
<rect x="0.5" width="153" height="153" rx="76.5" fill="#FFF0FF"/>
<path d="M78.1421 84.5889H72.9653C72.9839 82.8076 73.1416 81.3511 73.4385 80.2192C73.7539 79.0688 74.2642 78.0205 74.9692 77.0742C75.6743 76.1279 76.6113 75.0518 77.7803 73.8457C78.6338 72.9736 79.4131 72.1572 80.1182 71.3965C80.8418 70.6172 81.4263 69.7822 81.8716 68.8916C82.3169 67.9824 82.5396 66.897 82.5396 65.6353C82.5396 64.355 82.3076 63.251 81.8438 62.3232C81.3984 61.3955 80.7305 60.6812 79.8398 60.1802C78.9678 59.6792 77.8823 59.4287 76.5835 59.4287C75.5073 59.4287 74.4868 59.6235 73.522 60.0132C72.5571 60.4028 71.7778 61.0059 71.1841 61.8223C70.5903 62.6201 70.2842 63.6685 70.2656 64.9673H65.1167C65.1538 62.8706 65.6733 61.0708 66.6753 59.5679C67.6958 58.0649 69.0688 56.9146 70.7944 56.1167C72.52 55.3188 74.4497 54.9199 76.5835 54.9199C78.9399 54.9199 80.9438 55.3467 82.5952 56.2002C84.2651 57.0537 85.5361 58.2783 86.4082 59.874C87.2803 61.4512 87.7163 63.3252 87.7163 65.4961C87.7163 67.166 87.373 68.7061 86.6865 70.1162C86.0186 71.5078 85.1558 72.8159 84.0981 74.0405C83.0405 75.2651 81.918 76.4341 80.7305 77.5474C79.71 78.4937 79.0234 79.5605 78.6709 80.748C78.3184 81.9355 78.1421 83.2158 78.1421 84.5889ZM72.7427 93.4116C72.7427 92.5767 73.0024 91.8716 73.522 91.2964C74.0415 90.7212 74.793 90.4336 75.7764 90.4336C76.7783 90.4336 77.5391 90.7212 78.0586 91.2964C78.5781 91.8716 78.8379 92.5767 78.8379 93.4116C78.8379 94.2095 78.5781 94.896 78.0586 95.4712C77.5391 96.0464 76.7783 96.334 75.7764 96.334C74.793 96.334 74.0415 96.0464 73.522 95.4712C73.0024 94.896 72.7427 94.2095 72.7427 93.4116Z" fill="#660066"/>
</svg>
