<svg width="183" height="131" viewBox="0 0 183 131" fill="none" xmlns="http://www.w3.org/2000/svg">
<path fill-rule="evenodd" clip-rule="evenodd" d="M0.782315 57.4909C3.66722 61.2888 8.21768 72.2342 8.37415 79.3504C8.62998 90.9852 4.04373 94.1315 0.568359 102.256C41.5852 99.4918 98.4478 92.7197 141.955 88.2862C158.101 86.641 173.849 86.8802 180.434 75.7493C184.222 69.3471 182.86 62.4661 177.615 58.8573C172.039 55.0202 161.709 56.1081 154.005 56.1354C136.772 56.1956 119.537 56.3797 102.305 56.5354C85.0713 56.6915 67.8376 56.8886 50.6043 57.0418C35.276 57.1772 15.5145 56.2446 0.782315 57.4909Z" fill="#FF6699"/>
<mask id="mask0_588_19279" style="mask-type:luminance" maskUnits="userSpaceOnUse" x="0" y="55" width="183" height="48">
<path d="M0.782315 57.4909C3.66722 61.2888 8.21768 72.2342 8.37415 79.3504C8.62998 90.9852 4.04373 94.1315 0.568359 102.256C41.5852 99.4918 98.4478 92.7197 141.955 88.2862C158.101 86.641 173.849 86.8802 180.434 75.7493C184.222 69.3471 182.86 62.4661 177.615 58.8573C172.039 55.0202 161.709 56.1081 154.005 56.1354C136.772 56.1956 119.537 56.3797 102.305 56.5354C85.0713 56.6915 67.8376 56.8886 50.6043 57.0418C35.276 57.1772 15.5145 56.2446 0.782315 57.4909Z" fill="white"/>
</mask>
<g mask="url(#mask0_588_19279)">
<path fill-rule="evenodd" clip-rule="evenodd" d="M-9.76899 61.3715L149.668 64.8677C151.9 64.916 153.801 64.537 153.862 64.0353C153.921 63.5471 152.202 63.1303 150.073 63.0969L-6.35147 60.673C-6.7493 60.6669 -7.82894 60.8153 -8.76088 61.0056C-9.70577 61.1976 -10.1642 61.3635 -9.76899 61.3715Z" fill="#FF8FB4"/>
<path fill-rule="evenodd" clip-rule="evenodd" d="M-8.98326 90.4597L150.202 81.2354C152.43 81.1055 154.292 80.5762 154.308 80.0712C154.325 79.5797 152.576 79.3013 150.451 79.4381L-5.63883 89.4912C-6.03628 89.5166 -7.09882 89.7515 -8.01135 90.015C-8.93568 90.2815 -9.37804 90.4826 -8.98326 90.4597Z" fill="#FF8FB4"/>
<path fill-rule="evenodd" clip-rule="evenodd" d="M-9.7521 74.7956L149.712 72.6266C151.943 72.5954 153.829 72.1489 153.87 71.645C153.91 71.1553 152.176 70.7995 150.047 70.8424L-6.3639 73.9763C-6.76173 73.9843 -7.8349 74.1716 -8.75923 74.3938C-9.69536 74.6192 -10.1476 74.8015 -9.7521 74.7956Z" fill="#FF8FB4"/>
</g>
<path fill-rule="evenodd" clip-rule="evenodd" d="M182.593 130.33C173.272 118.48 170.148 123.077 176.654 97.2236C148.715 97.5333 86.6586 103.181 52.9446 105.576C41.4601 106.392 21.9103 104.37 22.1775 116.767C22.3024 122.578 27.2358 127.314 31.535 129.039C38.957 132.018 172.327 130.462 182.593 130.33Z" fill="#996699"/>
<mask id="mask1_588_19279" style="mask-type:luminance" maskUnits="userSpaceOnUse" x="22" y="97" width="161" height="34">
<path d="M182.593 130.33C173.272 118.48 170.148 123.077 176.654 97.2236C148.715 97.5333 86.6586 103.181 52.9446 105.576C41.4601 106.392 21.9103 104.37 22.1775 116.767C22.3024 122.578 27.2358 127.314 31.535 129.039C38.957 132.018 172.327 130.462 182.593 130.33Z" fill="white"/>
</mask>
<g mask="url(#mask1_588_19279)">
<path fill-rule="evenodd" clip-rule="evenodd" d="M180.115 103.611L49.8957 110.302C48.0733 110.395 46.5087 110.132 46.4463 109.722C46.385 109.325 47.7783 108.942 49.5177 108.865L177.304 103.122C177.629 103.107 178.515 103.203 179.282 103.335C180.06 103.469 180.438 103.594 180.115 103.611Z" fill="#BD93BD"/>
<path fill-rule="evenodd" clip-rule="evenodd" d="M180.244 127.401L49.8925 123.69C48.0682 123.638 46.5329 123.249 46.5062 122.837C46.4799 122.436 47.9022 122.167 49.6424 122.227L177.484 126.69C177.81 126.701 178.684 126.867 179.438 127.06C180.2 127.256 180.567 127.41 180.244 127.401Z" fill="#BD93BD"/>
<path fill-rule="evenodd" clip-rule="evenodd" d="M180.459 114.583L50.0674 116.644C48.2427 116.673 46.6895 116.353 46.6427 115.943C46.597 115.543 48.0048 115.211 49.7457 115.194L177.668 113.994C177.993 113.991 178.875 114.118 179.636 114.278C180.408 114.44 180.782 114.578 180.459 114.583Z" fill="#BD93BD"/>
</g>
<path fill-rule="evenodd" clip-rule="evenodd" d="M8.87505 23.7195C24.3218 36.6532 6.00115 48.8942 4.40527 50.6602L9.87931 50.8915C60.2465 51.7845 120.955 50.8403 172.523 50.8403H170.37C177.674 50.8403 179.565 50.1985 182.497 45.3333C184.219 29.0417 161.866 31.3026 147.726 30.3076C131.84 29.1887 116.013 28.0979 100.207 26.9954C69.5994 24.8601 35.4377 21.0825 5.14803 20.5703L8.87505 23.7195Z" fill="#660066"/>
<mask id="mask2_588_19279" style="mask-type:luminance" maskUnits="userSpaceOnUse" x="4" y="20" width="179" height="32">
<path d="M8.87505 23.7185C24.3218 36.6522 6.00115 48.8932 4.40527 50.6593L9.87931 50.8905C60.2465 51.7835 120.955 50.8393 172.523 50.8393H170.37C177.674 50.8393 179.565 50.1975 182.497 45.3323C184.219 29.0407 161.866 31.3016 147.726 30.3066C131.84 29.1878 116.013 28.0969 100.207 26.9944C69.5994 24.8591 35.4377 21.0816 5.14803 20.5693L8.87505 23.7185Z" fill="white"/>
</mask>
<g mask="url(#mask2_588_19279)">
<path fill-rule="evenodd" clip-rule="evenodd" d="M4.43527 23.6732L144.355 35.9552C146.313 36.1265 148.013 35.9425 148.103 35.5519C148.19 35.1718 146.711 34.7412 144.841 34.5884L7.49148 23.329C7.142 23.3007 6.18188 23.3526 5.34816 23.4459C4.50378 23.5403 4.08808 23.6427 4.43527 23.6732Z" fill="#9E299E"/>
<path fill-rule="evenodd" clip-rule="evenodd" d="M2.98101 46.5688L143.616 48.8431C145.584 48.8739 147.259 48.5697 147.311 48.174C147.362 47.7889 145.844 47.4658 143.966 47.4458L5.9927 46.0079C5.6417 46.0039 4.69036 46.1244 3.86843 46.2773C3.03623 46.4315 2.6323 46.563 2.98101 46.5688Z" fill="#9E299E"/>
<path fill-rule="evenodd" clip-rule="evenodd" d="M3.45998 34.2188L143.819 42.0513C145.783 42.1609 147.474 41.9224 147.548 41.5289C147.618 41.147 146.12 40.7637 144.246 40.67L6.49908 33.7777C6.14884 33.7603 5.19176 33.8427 4.36223 33.9629C3.52241 34.0834 3.11202 34.1992 3.45998 34.2188Z" fill="#9E299E"/>
</g>
<path fill-rule="evenodd" clip-rule="evenodd" d="M95.8867 20.5696C91.1748 10.5698 95.7843 7.19266 99.97 0.171875C85.925 0.518558 71.8948 1.19123 58.0733 2.03199C50.5112 2.49084 22.2289 0.044456 22.171 8.70682C22.104 18.7864 45.7711 17.4055 55.3829 17.9921C68.504 18.7926 82.873 20.3826 95.8867 20.5696Z" fill="#FF9999"/>
<mask id="mask3_588_19279" style="mask-type:luminance" maskUnits="userSpaceOnUse" x="22" y="0" width="78" height="21">
<path d="M95.8876 20.5696C91.1758 10.5698 95.7852 7.19266 99.971 0.171875C85.926 0.518558 71.8958 1.19123 58.0743 2.03199C50.5121 2.49084 22.2299 0.044456 22.172 8.70682C22.105 18.7864 45.7721 17.4055 55.3839 17.9921C68.5049 18.7926 82.8739 20.3826 95.8876 20.5696Z" fill="white"/>
</mask>
<g mask="url(#mask3_588_19279)">
<path fill-rule="evenodd" clip-rule="evenodd" d="M104.662 5.0656L40.5355 6.47157C39.6378 6.49154 38.873 6.33834 38.8482 6.13651C38.8246 5.94011 39.516 5.77276 40.3722 5.75933L103.288 4.78426C103.447 4.78172 103.882 4.84198 104.257 4.91821C104.637 4.99554 104.821 5.06197 104.662 5.0656Z" fill="#FFD9D9"/>
<path fill-rule="evenodd" clip-rule="evenodd" d="M104.351 16.7631L40.3249 13.0535C39.4295 13.0012 38.6803 12.7881 38.6739 12.5848C38.667 12.3873 39.3709 12.2755 40.2256 12.3303L103.006 16.3736C103.166 16.3842 103.593 16.4782 103.96 16.5842C104.332 16.6916 104.51 16.7726 104.351 16.7631Z" fill="#FFD9D9"/>
<path fill-rule="evenodd" clip-rule="evenodd" d="M104.658 10.4641L40.5199 9.59212C39.623 9.57941 38.8647 9.40008 38.8479 9.19679C38.8316 9.00004 39.5294 8.85737 40.3852 8.87443L103.295 10.1352C103.455 10.1381 103.887 10.2132 104.259 10.3029C104.635 10.3933 104.817 10.4666 104.658 10.4641Z" fill="#FFD9D9"/>
</g>
</svg>
