<svg width="94" height="94" viewBox="0 0 94 94" fill="none" xmlns="http://www.w3.org/2000/svg">
<circle cx="47.3107" cy="46.631" r="46.631" fill="#23A26D" fill-opacity="0.12"/>
<path d="M46.4709 24.4258C34.2358 24.4258 24.2656 34.3959 24.2656 46.631C24.2656 58.8661 34.2358 68.8362 46.4709 68.8362C58.7059 68.8362 68.6761 58.8661 68.6761 46.631C68.6761 34.3959 58.7059 24.4258 46.4709 24.4258ZM57.085 41.5238L44.4946 54.1142C44.1837 54.425 43.7618 54.6027 43.3177 54.6027C42.8736 54.6027 42.4517 54.425 42.1408 54.1142L35.8568 47.8301C35.2128 47.1861 35.2128 46.1203 35.8568 45.4763C36.5007 44.8324 37.5666 44.8324 38.2105 45.4763L43.3177 50.5835L54.7312 39.1701C55.3752 38.5261 56.441 38.5261 57.085 39.1701C57.7289 39.814 57.7289 40.8577 57.085 41.5238Z" fill="#23A26D"/>
</svg>
