<svg width="142" height="120" viewBox="0 0 142 120" fill="none" xmlns="http://www.w3.org/2000/svg">
<path d="M141.116 30.1465L138.064 44.9247L136.101 43.0095L132.758 45.3921L130.205 42.2222L124.476 46.3867L119.583 38.2008L114.123 41.3985L111.959 38.4128L105.025 42.3191L102.939 37.8538L107.799 14.317L133.853 19.6962L141.116 30.1465Z" fill="#F9F6F9"/>
<path d="M133.853 19.6973L141.116 30.146L132.081 28.2805L133.853 19.6973Z" fill="#D4D6D3"/>
<path d="M87.1884 45.3379L51.4261 47.5513L48.5848 1.64309L75.1386 -9.91821e-05L84.889 8.17725L87.1884 45.3379Z" fill="#F9F6F9"/>
<path d="M75.1386 4.48227e-05L84.889 8.1774L75.68 8.74756L75.1386 4.48227e-05Z" fill="#D4D6D3"/>
<path d="M64.6589 36.5369C64.576 35.057 65.5173 33.961 66.9172 33.8825C68.3168 33.8041 69.3353 34.7904 69.4179 36.2703C69.4963 37.6699 68.6372 38.8013 67.1573 38.8845C65.7574 38.9626 64.7374 37.9365 64.6589 36.5369ZM65.2249 30.8879L65.0865 29.8525C64.7259 27.7062 65.3136 25.3063 67.1787 22.7945C68.8598 20.5738 69.7728 18.958 69.6717 17.1583C69.5575 15.1184 68.2017 13.8301 65.6793 13.9312C64.2393 14.0119 62.6665 14.5814 61.7093 15.3974L60.6079 12.9315C61.8744 11.8977 64.1181 11.1298 66.2383 11.0112C70.8378 10.7535 73.0764 13.4771 73.2463 16.5163C73.3991 19.2364 71.989 21.281 70.1969 23.6685C68.5534 25.8468 68.0122 27.6424 68.2466 29.6756L68.3445 30.7135L65.2249 30.8879Z" fill="#D4D6D3"/>
<path d="M24.6102 112.378C23.7632 112.346 22.9367 112.751 22.4769 113.257C22.0349 113.743 21.6576 114.426 21.6854 115.167L21.7284 115.167C21.9274 113.768 23.1943 112.536 24.6105 112.422C24.6392 112.42 24.6395 112.379 24.6102 112.378Z" fill="#17282F"/>
<path d="M18.3668 109.214C16.9373 109.199 15.2817 109.709 14.3974 110.881C14.3633 110.927 14.4284 110.975 14.4708 110.953C15.7606 110.282 16.9874 109.782 18.392 109.39C18.4912 109.362 18.4692 109.215 18.3668 109.214Z" fill="#17282F"/>
<path d="M19.4717 109.64C18.0422 109.625 16.3869 110.136 15.5027 111.308C15.4682 111.353 15.5333 111.401 15.5757 111.379C16.8655 110.708 18.0923 110.208 19.4973 109.816C19.5961 109.788 19.5741 109.641 19.4717 109.64Z" fill="#17282F"/>
<path d="M20.577 110.067C19.1474 110.052 17.4918 110.562 16.6075 111.735C16.5734 111.78 16.6385 111.828 16.6809 111.806C17.9708 111.135 19.1975 110.635 20.6021 110.243C20.701 110.215 20.6793 110.068 20.577 110.067Z" fill="#17282F"/>
<path d="M21.6819 110.492C20.2523 110.478 18.5967 110.988 17.7128 112.16C17.6783 112.206 17.7434 112.254 17.7858 112.232C19.0757 111.561 20.3024 111.06 21.707 110.668C21.8062 110.641 21.7842 110.494 21.6819 110.492Z" fill="#17282F"/>
<path d="M18.1551 108.439C17.664 108.799 17.1589 109.132 16.6812 109.511C16.9341 108.797 17.1547 108.077 17.4794 107.39C17.6343 107.062 17.7995 106.728 17.9982 106.424C18.3072 105.95 19.7058 104.751 19.8537 106.306C19.9351 107.162 18.7402 108.009 18.1551 108.439ZM19.8981 105.394C19.1726 104.797 18.2632 105.386 17.819 106.011C17.1002 107.022 16.6085 108.438 16.5329 109.671C16.5313 109.701 16.5543 109.713 16.5779 109.712C16.6085 109.814 16.73 109.899 16.8352 109.826C17.8505 109.118 19.0237 108.488 19.7916 107.49C20.2399 106.907 20.5846 105.959 19.8981 105.394Z" fill="#17282F"/>
<path d="M12.1177 109.403C11.1461 108.18 12.9857 108.075 13.5368 108.202C13.8904 108.283 14.2412 108.409 14.5801 108.538C15.2906 108.808 15.9494 109.174 16.6261 109.513C16.0196 109.571 15.4239 109.681 14.8206 109.762C14.1012 109.858 12.6531 110.077 12.1177 109.403ZM12.9832 110.213C14.2287 110.4 15.5113 110.041 16.7335 109.847C16.8604 109.827 16.8882 109.681 16.8397 109.586L16.8439 109.526C15.9347 108.69 14.5989 108.01 13.3792 107.78C12.6264 107.637 11.5622 107.843 11.4535 108.777C11.3508 109.66 12.2564 110.104 12.9832 110.213Z" fill="#17282F"/>
<path d="M22.0151 46.7662C22.4278 47.2643 22.849 47.7662 23.216 48.299C23.5831 48.8325 23.9316 49.3787 24.2476 49.9438C25.0219 51.3296 25.29 52.3185 25.2667 52.2592C24.7176 50.8574 23.4332 48.9282 23.0662 48.3947C22.7001 47.8628 22.3605 47.3121 21.9944 46.7796L22.0151 46.7662Z" fill="#17282F"/>
<path d="M20.0655 48.0567C20.7728 48.6173 22.2568 50.705 22.8289 52.1036C22.8528 52.1622 22.8212 52.1578 22.7865 52.1042C22.3385 51.4132 20.5282 48.7337 20.0489 48.0675L20.0655 48.0567Z" fill="#17282F"/>
<path d="M18.1934 48.8632C19.0122 49.6735 19.6997 50.7803 20.2406 52.059C20.2648 52.117 20.2186 52.1081 20.1851 52.0533C19.5247 50.978 19.0138 50.1298 18.1595 48.8912L18.1934 48.8632Z" fill="#17282F"/>
<path d="M112.215 120H15.0597L29.1079 40.3275H126.264L112.215 120Z" fill="#FABB1E"/>
<path d="M62.3595 32.0766H30.5627L29.108 40.3276H63.136L62.3595 32.0766Z" fill="#FABB1E"/>
<path d="M112.215 120H15.0597L29.1079 40.3275H126.264L124.799 48.6347L121.524 67.2049L112.215 120Z" fill="#FFCCFF"/>
<path d="M63.136 40.3276H29.108L30.5627 32.0766H62.3595L63.136 40.3276Z" fill="#FFCCFF"/>
<path d="M21.563 41.2351C21.1003 41.361 20.6379 41.3891 20.1755 41.3945C19.7128 41.3897 19.2505 41.3617 18.7878 41.2351C19.2505 41.1088 19.7128 41.0804 20.1755 41.076C20.6379 41.0811 21.1003 41.1095 21.563 41.2351Z" fill="#17282F"/>
<path d="M22.38 44.0608C22.0423 44.401 21.6558 44.6568 21.2581 44.8924C20.8551 45.1198 20.4405 45.3264 19.9766 45.4482C20.3139 45.1077 20.7004 44.8516 21.0987 44.6166C21.5018 44.3899 21.9163 44.1832 22.38 44.0608Z" fill="#17282F"/>
<path d="M24.5005 46.1C24.378 46.5637 24.1711 46.9782 23.9447 47.3816C23.7093 47.7796 23.4536 48.166 23.1127 48.5034C23.2345 48.0398 23.4415 47.6249 23.6685 47.2222C23.9045 46.8242 24.1602 46.4377 24.5005 46.1Z" fill="#17282F"/>
<path d="M27.3557 46.8044C27.4817 47.2671 27.5097 47.7294 27.5152 48.1918C27.5104 48.6545 27.4823 49.1169 27.3557 49.5796C27.2294 49.1169 27.2011 48.6545 27.1966 48.1918C27.2017 47.7294 27.2301 47.2671 27.3557 46.8044Z" fill="#17282F"/>
<path d="M30.1813 45.9872C30.5216 46.3249 30.7773 46.7114 31.013 47.109C31.2403 47.5121 31.447 47.9267 31.5688 48.3906C31.2282 48.0533 30.9725 47.6668 30.7371 47.2685C30.5104 46.8654 30.3038 46.4506 30.1813 45.9872Z" fill="#17282F"/>
<path d="M32.2196 43.8669C32.6832 43.9891 33.0978 44.196 33.5012 44.4224C33.8991 44.6578 34.2856 44.9135 34.623 45.2544C34.1593 45.1326 33.7445 44.9256 33.3417 44.6986C32.9438 44.4626 32.5573 44.2069 32.2196 43.8669Z" fill="#17282F"/>
<path d="M112.073 120H14.7077L0.883575 43.2201H98.2491L112.073 120Z" fill="#FFF0FF"/>
<path d="M38.6699 86.1093C38.6699 88.3444 36.8581 90.1562 34.623 90.1562C32.388 90.1562 30.5761 88.3444 30.5761 86.1093C30.5761 83.8743 32.388 82.0624 34.623 82.0624C36.8581 82.0624 38.6699 83.8743 38.6699 86.1093Z" fill="#17282F"/>
<path d="M70.6619 86.1093C70.6619 88.3444 68.8497 90.1562 66.6146 90.1562C64.3799 90.1562 62.5677 88.3444 62.5677 86.1093C62.5677 83.8743 64.3799 82.0624 66.6146 82.0624C68.8497 82.0624 70.6619 83.8743 70.6619 86.1093Z" fill="#17282F"/>
<path d="M56.4315 90.8022L56.2092 90.3785C56.1891 90.3402 54.0986 86.476 49.8919 86.476C46.0555 86.476 45.1202 90.1144 45.0822 90.2694L44.9687 90.733L44.0408 90.5089L44.1524 90.0446C44.1632 89.9996 45.2924 85.5194 49.8919 85.5194C54.6869 85.5194 56.9621 89.7541 57.0565 89.9346L57.2788 90.358L56.4315 90.8022Z" fill="#17282F"/>
<path d="M105.645 85.8005C105.854 85.7555 106.064 85.7064 106.271 85.6531L106.193 85.3441C105.988 85.3964 105.783 85.4449 105.578 85.4889L105.645 85.8008" fill="#17282F"/>
<path d="M107.507 85.2871C107.915 85.1494 108.317 84.9966 108.712 84.8295L108.588 84.5358C108.2 84.6997 107.805 84.8496 107.405 84.9848L107.507 85.2871ZM109.88 84.2833C110.264 84.0856 110.639 83.8745 111.004 83.6503L110.837 83.3786C110.479 83.5983 110.111 83.8059 109.734 83.9998L109.88 84.2833ZM112.074 82.9315C112.424 82.6758 112.761 82.4073 113.082 82.127L112.873 81.8866C112.558 82.1605 112.229 82.4236 111.886 82.6742L112.074 82.9315ZM114.017 81.2361C114.317 80.9213 114.6 80.5948 114.861 80.2581L114.61 80.0623C114.355 80.3904 114.08 80.7086 113.786 81.0157L114.017 81.2361ZM115.598 79.1943C115.825 78.8221 116.028 78.4395 116.204 78.0479L115.913 77.9172C115.743 78.296 115.547 78.6668 115.326 79.0281L115.598 79.1943ZM116.653 76.8301C116.774 76.4143 116.864 75.9902 116.921 75.5597L116.604 75.5179C116.55 75.9321 116.463 76.3403 116.347 76.7414L116.653 76.8301ZM117.005 74.2669C117.005 74.236 117.005 74.2051 117.005 74.1741C117.005 73.7682 116.984 73.3696 116.943 72.9774L116.626 73.0102C116.666 73.3916 116.686 73.7794 116.686 74.1741C116.686 74.2041 116.686 74.2341 116.686 74.2644L117.005 74.2669ZM116.742 71.7028C116.653 71.28 116.542 70.8645 116.412 70.4554L116.108 70.5517C116.235 70.9515 116.343 71.3568 116.43 71.7688L116.742 71.7028ZM115.971 69.2455C115.808 68.8501 115.63 68.4601 115.439 68.074L115.153 68.2152C115.341 68.5957 115.516 68.979 115.676 69.3667L115.971 69.2455ZM114.837 66.9388C114.628 66.5682 114.409 66.2009 114.183 65.8351L113.912 66.0029C114.136 66.3654 114.353 66.7293 114.559 67.0957L114.837 66.9388ZM113.493 64.7551C113.26 64.4002 113.022 64.0459 112.781 63.6916L112.518 63.8708C112.758 64.2241 112.994 64.5771 113.226 64.9301L113.493 64.7551ZM112.062 62.6374C111.822 62.2869 111.582 61.9359 111.345 61.5829L111.08 61.7611C111.319 62.1151 111.559 62.4668 111.799 62.8172L112.062 62.6374ZM110.641 60.5207C110.41 60.1648 110.183 59.8064 109.963 59.4445L109.691 59.6103C109.913 59.9754 110.141 60.3364 110.374 60.6945L110.641 60.5207ZM109.322 58.3475C109.116 57.9779 108.918 57.6042 108.731 57.2254L108.445 57.3666C108.635 57.7509 108.835 58.1294 109.043 58.5028L109.322 58.3475ZM108.203 56.0752C108.04 55.688 107.889 55.2952 107.752 54.8956L107.45 54.9989C107.589 55.4062 107.743 55.8057 107.909 56.1992L108.203 56.0752ZM107.389 53.6864C107.286 53.2831 107.197 52.8723 107.126 52.4533L106.812 52.5066C106.884 52.9345 106.975 53.3542 107.08 53.7658L107.389 53.6864ZM106.97 51.203C106.94 50.8238 106.924 50.4377 106.924 50.0445C106.924 50.0104 106.924 49.9763 106.925 49.9425L106.606 49.9402C106.605 49.975 106.605 50.0098 106.605 50.0445C106.605 50.4463 106.622 50.8408 106.653 51.2285L106.97 51.203ZM106.987 48.681C106.995 48.5936 107.004 48.5059 107.014 48.4176C107.05 48.0786 107.097 47.7495 107.153 47.4303L106.84 47.3749C106.782 47.7011 106.734 48.0372 106.697 48.3831C106.687 48.4731 106.678 48.5627 106.669 48.652L106.987 48.681ZM107.429 46.2011C107.544 45.784 107.676 45.3863 107.825 45.0069L107.528 44.8908C107.375 45.2808 107.24 45.6889 107.122 46.1165L107.429 46.2011ZM108.347 43.864C108.548 43.4855 108.765 43.1283 108.999 42.7913L108.738 42.6095C108.496 42.9568 108.271 43.3251 108.065 43.7151L108.347 43.864ZM109.778 41.8066C110.06 41.4906 110.359 41.1969 110.671 40.9239L110.461 40.6841C110.139 40.965 109.832 41.268 109.54 41.5939L109.778 41.8066ZM111.664 40.1532C112.012 39.914 112.371 39.6962 112.739 39.4979L112.588 39.2173C112.211 39.4204 111.841 39.6446 111.484 39.8904L111.664 40.1532ZM113.878 38.9574C114.269 38.7951 114.665 38.6522 115.065 38.5275L114.97 38.223C114.561 38.3506 114.155 38.4969 113.756 38.663L113.878 38.9574ZM116.286 38.2023C116.701 38.1101 117.117 38.0352 117.53 37.9768L117.485 37.6611C117.064 37.7208 116.64 37.797 116.216 37.891L116.286 38.2023ZM118.788 37.847C119.168 37.8218 119.543 37.81 119.909 37.81C119.957 37.81 120.005 37.8104 120.053 37.8107L120.056 37.4918C120.007 37.4915 119.958 37.4912 119.909 37.4912C119.536 37.4912 119.154 37.5033 118.767 37.5288L118.788 37.847ZM121.316 37.87C121.755 37.9079 122.174 37.9628 122.568 38.0323L122.623 37.7182C122.22 37.6471 121.791 37.591 121.343 37.5521L121.316 37.87ZM123.792 38.318C123.864 38.3394 123.934 38.3614 124.002 38.384C124.353 38.4995 124.67 38.6302 124.953 38.7728L125.097 38.488C124.797 38.3375 124.466 38.201 124.102 38.0811C124.031 38.0578 123.958 38.0349 123.884 38.0125L123.792 38.318ZM125.979 39.4542C126.318 39.7539 126.562 40.076 126.723 40.4038L127.009 40.2632C126.828 39.8949 126.557 39.54 126.19 39.2154L125.979 39.4542ZM126.961 41.5591C126.936 41.952 126.803 42.3314 126.574 42.6717L126.839 42.8499C127.098 42.4657 127.25 42.0311 127.28 41.5798L126.961 41.5591ZM125.699 43.4899C125.376 43.6857 124.996 43.8378 124.564 43.9297L124.631 44.2415C125.095 44.1427 125.509 43.9781 125.865 43.7629L125.699 43.4899ZM123.336 44.0225C123.168 44.0145 122.995 43.9985 122.818 43.9743C122.575 43.9408 122.334 43.9003 122.096 43.8528L122.033 44.1656C122.278 44.2144 122.525 44.2559 122.775 44.2903C122.961 44.3158 123.143 44.3324 123.321 44.341L123.336 44.0225ZM120.877 43.54C120.474 43.4131 120.081 43.2648 119.699 43.0964L119.571 43.3882C119.963 43.5614 120.367 43.7135 120.781 43.8442L120.877 43.54ZM118.578 42.526C118.214 42.3149 117.864 42.084 117.527 41.8346L117.337 42.091C117.684 42.3474 118.044 42.5846 118.418 42.8015L118.578 42.526ZM116.558 41.0326C116.251 40.7485 115.958 40.4475 115.681 40.1302L115.441 40.3397C115.725 40.6656 116.026 40.9749 116.341 41.2667L116.558 41.0326ZM114.904 39.1391C114.664 38.7979 114.441 38.4424 114.233 38.0731L113.955 38.2291C114.168 38.6076 114.397 38.9727 114.643 39.3228L114.904 39.1391ZM113.672 36.9449C113.505 36.5635 113.355 36.1707 113.222 35.767L112.919 35.8668C113.055 36.2797 113.209 36.6822 113.38 37.0728L113.672 36.9449ZM112.883 34.5521C112.79 34.1471 112.714 33.7329 112.655 33.311L112.339 33.355C112.399 33.7861 112.477 34.2093 112.573 34.6235L112.883 34.5521ZM112.533 32.0539C112.518 31.7714 112.51 31.4854 112.51 31.1968C112.51 31.0619 112.511 30.9267 112.515 30.7909L112.196 30.7826C112.192 30.9213 112.191 31.0594 112.191 31.1968C112.191 31.4914 112.199 31.7829 112.215 32.0715L112.533 32.0539ZM112.596 29.5294C112.638 29.1164 112.696 28.6987 112.77 28.2768L112.456 28.2213C112.38 28.6509 112.321 29.0762 112.278 29.4972L112.596 29.5294ZM113.032 27.0389C113.132 26.6359 113.247 26.2296 113.377 25.8208L113.074 25.7239C112.941 26.1394 112.824 26.552 112.723 26.9621L113.032 27.0389ZM113.799 24.6263C113.954 24.2264 114.122 23.8402 114.302 23.4675L114.014 23.3294C113.831 23.7095 113.66 24.103 113.502 24.5108L113.799 24.6263ZM114.894 22.3517C115.109 21.9818 115.336 21.6266 115.572 21.286L115.31 21.1043C115.069 21.4518 114.838 21.8141 114.618 22.1913L114.894 22.3517ZM116.331 20.2758C116.602 19.9442 116.881 19.6278 117.166 19.3262L116.935 19.1068C116.644 19.4142 116.36 19.7366 116.084 20.0746L116.331 20.2758ZM118.069 18.44C118.385 18.1505 118.707 17.8769 119.032 17.6189L118.833 17.3692C118.503 17.632 118.176 17.91 117.854 18.2047L118.069 18.44ZM120.048 16.8632C120.403 16.6167 120.759 16.3867 121.111 16.1728L120.945 15.9005C120.588 16.1173 120.227 16.3507 119.866 16.6014L120.048 16.8632ZM122.214 15.5471C122.602 15.3411 122.983 15.1546 123.351 14.9853L123.217 14.6957C122.845 14.867 122.459 15.0564 122.064 15.2656L122.214 15.5471ZM124.517 14.4872C124.949 14.3169 125.35 14.1737 125.71 14.0541L125.61 13.7515C125.244 13.8727 124.838 14.0181 124.4 14.1906L124.517 14.4872Z" fill="#17282F"/>
<path d="M126.987 13.6763C127.182 13.6259 127.335 13.5902 127.439 13.5672C127.491 13.5557 127.531 13.5478 127.557 13.5423L127.596 13.5347L127.538 13.2212C127.534 13.2219 127.306 13.2646 126.907 13.3673L126.987 13.6763Z" fill="#17282F"/>
<path d="M132.624 11.6169C131.81 9.09647 126.364 10.0021 127.427 13.2949C128.491 16.5879 133.438 14.1373 132.624 11.6169Z" fill="#17282F"/>
<path d="M124.465 10.6011C124.506 9.49559 126.044 8.64515 128.217 9.03769C130.391 9.43023 132.438 10.8942 132.438 10.8942C132.438 10.8942 130.289 12.2089 128.092 12.4408C125.896 12.6726 124.424 11.7115 124.465 10.6011Z" fill="#E7E8E5"/>
<path d="M132.438 10.894C131.309 10.9017 130.182 10.8637 129.055 10.8293C127.929 10.7811 126.802 10.7365 125.677 10.6456C126.806 10.637 127.932 10.6756 129.06 10.71C130.186 10.7582 131.313 10.8031 132.438 10.894Z" fill="#17282F"/>
<path d="M126.65 9.62244C126.976 9.76848 127.278 9.95344 127.582 10.1355C127.879 10.3294 128.178 10.5201 128.451 10.75C128.125 10.604 127.823 10.4187 127.519 10.2366C127.222 10.0427 126.924 9.85171 126.65 9.62244Z" fill="#17282F"/>
<path d="M129.605 10.7899C129.318 11.0323 129.008 11.2364 128.7 11.4433C128.383 11.6388 128.069 11.8371 127.73 11.9966C128.015 11.7536 128.326 11.5498 128.635 11.3429C128.951 11.1477 129.265 10.9497 129.605 10.7899Z" fill="#17282F"/>
<path d="M129.932 10.1672C130.101 10.2396 130.24 10.3477 130.382 10.4529C130.515 10.569 130.651 10.6825 130.757 10.832C130.588 10.76 130.449 10.6515 130.307 10.546C130.174 10.4299 130.039 10.3161 129.932 10.1672Z" fill="#17282F"/>
<path d="M126.536 17.1616C127.216 18.0344 128.96 17.8248 130.494 16.2352C132.028 14.6459 132.832 12.261 132.832 12.261C132.832 12.261 130.32 12.4517 128.402 13.548C126.485 14.6447 125.854 16.2847 126.536 17.1616Z" fill="#E7E8E5"/>
<path d="M132.832 12.2604C131.912 12.9141 131.02 13.6041 130.126 14.291C129.24 14.989 128.353 15.6842 127.493 16.416C128.413 15.7626 129.305 15.0726 130.199 14.3854C131.085 13.687 131.973 12.9919 132.832 12.2604Z" fill="#17282F"/>
<path d="M128.881 16.6777C129.06 16.3684 129.197 16.0416 129.337 15.7163C129.464 15.3856 129.595 15.0566 129.683 14.7096C129.503 15.0189 129.366 15.3458 129.226 15.6714C129.099 16.002 128.969 16.3314 128.881 16.6777Z" fill="#17282F"/>
<path d="M130.595 14.0022C130.221 13.9725 129.85 13.9888 129.478 14.0012C129.108 14.0277 128.737 14.0507 128.368 14.1199C128.742 14.1498 129.113 14.1332 129.485 14.1205C129.856 14.094 130.226 14.0711 130.595 14.0022Z" fill="#17282F"/>
<path d="M131.225 14.3154C131.318 14.1579 131.369 13.9889 131.422 13.8202C131.462 13.6483 131.506 13.4771 131.505 13.2941C131.41 13.4509 131.36 13.6203 131.307 13.7886C131.267 13.9608 131.224 14.1321 131.225 14.3154Z" fill="#17282F"/>
<path d="M132.624 11.617C132.122 11.7793 131.584 11.5035 131.422 11.0016C131.259 10.4994 131.535 9.96077 132.037 9.79878C132.539 9.63647 133.078 9.9123 133.24 10.4142C133.402 10.9165 133.126 11.455 132.624 11.617Z" fill="#33535F"/>
<path d="M133.211 13.4355C132.709 13.5975 132.171 13.322 132.009 12.8198C131.847 12.3178 132.122 11.7793 132.624 11.6169C133.126 11.4549 133.665 11.7305 133.827 12.2327C133.989 12.7346 133.714 13.2732 133.211 13.4355Z" fill="#33535F"/>
</svg>
