<svg width="40" height="40" viewBox="0 0 40 40" fill="none" xmlns="http://www.w3.org/2000/svg">
<rect width="40" height="40" rx="20" fill="white"/>
<path d="M27.9766 14L27.3568 24.0251C27.1985 26.5864 27.1193 27.8671 26.4773 28.7879C26.1599 29.2431 25.7512 29.6273 25.2773 29.916C24.3187 30.5 23.0356 30.5 20.4693 30.5C17.8997 30.5 16.6149 30.5 15.6556 29.9149C15.1814 29.6257 14.7726 29.2408 14.4552 28.7848C13.8134 27.8626 13.736 26.5801 13.5812 24.0152L12.9766 14" stroke="#660066" stroke-width="1.5" stroke-linecap="round"/>
<path d="M11.4766 14H29.4766M24.5323 14L23.8496 12.5917C23.3961 11.6563 23.1694 11.1885 22.7783 10.8968C22.6915 10.8321 22.5997 10.7745 22.5036 10.7247C22.0705 10.5 21.5507 10.5 20.5111 10.5C19.4454 10.5 18.9125 10.5 18.4722 10.7341C18.3747 10.786 18.2815 10.8459 18.1939 10.9132C17.7982 11.2167 17.5772 11.7016 17.1352 12.6713L16.5295 14" stroke="#660066" stroke-width="1.5" stroke-linecap="round"/>
<path d="M17.9766 25L17.9766 19" stroke="#660066" stroke-width="1.5" stroke-linecap="round"/>
<path d="M22.9766 25L22.9766 19" stroke="#660066" stroke-width="1.5" stroke-linecap="round"/>
</svg>
